<svg id="visual" viewBox="0 0 960 540" width="960" height="540" xmlns="http://www.w3.org/2000/svg" xmlns:xlink="http://www.w3.org/1999/xlink" version="1.1"><rect x="0" y="0" width="960" height="540" fill="#ffffff"></rect><defs><linearGradient id="grad1_0" x1="43.8%" y1="0%" x2="100%" y2="100%"><stop offset="14.444444444444446%" stop-color="#6c63ff" stop-opacity="1"></stop><stop offset="85.55555555555554%" stop-color="#6c63ff" stop-opacity="1"></stop></linearGradient></defs><defs><linearGradient id="grad1_1" x1="43.8%" y1="0%" x2="100%" y2="100%"><stop offset="14.444444444444446%" stop-color="#6c63ff" stop-opacity="1"></stop><stop offset="85.55555555555554%" stop-color="#9b88ff" stop-opacity="1"></stop></linearGradient></defs><defs><linearGradient id="grad1_2" x1="43.8%" y1="0%" x2="100%" y2="100%"><stop offset="14.444444444444446%" stop-color="#c0afff" stop-opacity="1"></stop><stop offset="85.55555555555554%" stop-color="#9b88ff" stop-opacity="1"></stop></linearGradient></defs><defs><linearGradient id="grad1_3" x1="43.8%" y1="0%" x2="100%" y2="100%"><stop offset="14.444444444444446%" stop-color="#c0afff" stop-opacity="1"></stop><stop offset="85.55555555555554%" stop-color="#e1d6ff" stop-opacity="1"></stop></linearGradient></defs><defs><linearGradient id="grad1_4" x1="43.8%" y1="0%" x2="100%" y2="100%"><stop offset="14.444444444444446%" stop-color="#ffffff" stop-opacity="1"></stop><stop offset="85.55555555555554%" stop-color="#e1d6ff" stop-opacity="1"></stop></linearGradient></defs><defs><linearGradient id="grad2_0" x1="0%" y1="0%" x2="56.3%" y2="100%"><stop offset="14.444444444444446%" stop-color="#6c63ff" stop-opacity="1"></stop><stop offset="85.55555555555554%" stop-color="#6c63ff" stop-opacity="1"></stop></linearGradient></defs><defs><linearGradient id="grad2_1" x1="0%" y1="0%" x2="56.3%" y2="100%"><stop offset="14.444444444444446%" stop-color="#9b88ff" stop-opacity="1"></stop><stop offset="85.55555555555554%" stop-color="#6c63ff" stop-opacity="1"></stop></linearGradient></defs><defs><linearGradient id="grad2_2" x1="0%" y1="0%" x2="56.3%" y2="100%"><stop offset="14.444444444444446%" stop-color="#9b88ff" stop-opacity="1"></stop><stop offset="85.55555555555554%" stop-color="#c0afff" stop-opacity="1"></stop></linearGradient></defs><defs><linearGradient id="grad2_3" x1="0%" y1="0%" x2="56.3%" y2="100%"><stop offset="14.444444444444446%" stop-color="#e1d6ff" stop-opacity="1"></stop><stop offset="85.55555555555554%" stop-color="#c0afff" stop-opacity="1"></stop></linearGradient></defs><defs><linearGradient id="grad2_4" x1="0%" y1="0%" x2="56.3%" y2="100%"><stop offset="14.444444444444446%" stop-color="#e1d6ff" stop-opacity="1"></stop><stop offset="85.55555555555554%" stop-color="#ffffff" stop-opacity="1"></stop></linearGradient></defs><g transform="translate(960, 0)"><path d="M0 432C-47.8 432.7 -95.5 433.3 -133.5 410.9C-171.5 388.4 -199.6 342.8 -222.2 305.8C-244.7 268.8 -261.7 240.4 -296.1 215.1C-330.5 189.9 -382.4 167.9 -408 132.6C-433.6 97.2 -432.8 48.6 -432 0L0 0Z" fill="#f0ebff"></path><path d="M0 345.6C-38.2 346.1 -76.4 346.7 -106.8 328.7C-137.2 310.7 -159.7 274.3 -177.7 244.6C-195.8 215 -209.3 192.3 -236.9 172.1C-264.4 151.9 -306 134.3 -326.4 106.1C-346.9 77.8 -346.2 38.9 -345.6 0L0 0Z" fill="#d1c2ff"></path><path d="M0 259.2C-28.7 259.6 -57.3 260 -80.1 246.5C-102.9 233 -119.8 205.7 -133.3 183.5C-146.8 161.3 -157 144.2 -177.7 129.1C-198.3 113.9 -229.5 100.7 -244.8 79.5C-260.1 58.3 -259.7 29.2 -259.2 0L0 0Z" fill="#ae9bff"></path><path d="M0 172.8C-19.1 173.1 -38.2 173.3 -53.4 164.3C-68.6 155.4 -79.9 137.1 -88.9 122.3C-97.9 107.5 -104.7 96.1 -118.4 86.1C-132.2 76 -153 67.2 -163.2 53C-173.4 38.9 -173.1 19.4 -172.8 0L0 0Z" fill="#8576ff"></path><path d="M0 86.4C-9.6 86.5 -19.1 86.7 -26.7 82.2C-34.3 77.7 -39.9 68.6 -44.4 61.2C-48.9 53.8 -52.3 48.1 -59.2 43C-66.1 38 -76.5 33.6 -81.6 26.5C-86.7 19.4 -86.6 9.7 -86.4 0L0 0Z" fill="#6c63ff"></path></g><g transform="translate(0, 540)"><path d="M0 -432C35.7 -403.3 71.5 -374.6 119.6 -368.1C167.7 -361.5 228.1 -377.2 253.9 -349.5C279.7 -321.8 270.8 -250.6 285.6 -207.5C300.3 -164.3 338.8 -149.2 367.1 -119.3C395.5 -89.4 413.7 -44.7 432 0L0 0Z" fill="#f0ebff"></path><path d="M0 -345.6C28.6 -322.6 57.2 -299.7 95.7 -294.4C134.2 -289.2 182.5 -301.8 203.1 -279.6C223.8 -257.4 216.7 -200.5 228.5 -166C240.3 -131.5 271 -119.4 293.7 -95.4C316.4 -71.5 331 -35.7 345.6 0L0 0Z" fill="#d1c2ff"></path><path d="M0 -259.2C21.4 -242 42.9 -224.7 71.8 -220.8C100.6 -216.9 136.9 -226.3 152.4 -209.7C167.8 -193.1 162.5 -150.4 171.3 -124.5C180.2 -98.6 203.3 -89.5 220.3 -71.6C237.3 -53.6 248.2 -26.8 259.2 0L0 0Z" fill="#ae9bff"></path><path d="M0 -172.8C14.3 -161.3 28.6 -149.8 47.8 -147.2C67.1 -144.6 91.3 -150.9 101.6 -139.8C111.9 -128.7 108.3 -100.3 114.2 -83C120.1 -65.7 135.5 -59.7 146.8 -47.7C158.2 -35.7 165.5 -17.9 172.8 0L0 0Z" fill="#8576ff"></path><path d="M0 -86.4C7.1 -80.7 14.3 -74.9 23.9 -73.6C33.5 -72.3 45.6 -75.4 50.8 -69.9C55.9 -64.4 54.2 -50.1 57.1 -41.5C60.1 -32.9 67.8 -29.8 73.4 -23.9C79.1 -17.9 82.7 -8.9 86.4 0L0 0Z" fill="#6c63ff"></path></g></svg>